<?xml version="1.0" encoding="UTF-8"?>
<svg id="_レイヤー_2" data-name="レイヤー 2" xmlns="http://www.w3.org/2000/svg" xmlns:xlink="http://www.w3.org/1999/xlink" viewBox="0 0 208.06 81.96">
  <defs>
    <style>
      .cls-1 {
        fill: url(#_名称未設定グラデーション_4);
      }

      .cls-2 {
        fill: #333;
      }

      .cls-3 {
        fill: #ccc;
      }
    </style>
    <linearGradient id="_名称未設定グラデーション_4" data-name="名称未設定グラデーション 4" x1="104.03" y1=".5" x2="104.03" y2="81.46" gradientUnits="userSpaceOnUse">
      <stop offset="0" stop-color="#fff"/>
      <stop offset=".33" stop-color="#faf9f9"/>
      <stop offset=".75" stop-color="#ede9e9"/>
      <stop offset="1" stop-color="#e3dcdc"/>
    </linearGradient>
  </defs>
  <g id="_レイヤー_2-2" data-name="レイヤー 2">
    <g>
      <g>
        <rect class="cls-1" x=".5" y=".5" width="207.06" height="80.96" rx="2.5" ry="2.5"/>
        <path class="cls-3" d="M205.06,1c1.1,0,2,.9,2,2v75.96c0,1.1-.9,2-2,2H3c-1.1,0-2-.9-2-2V3c0-1.1.9-2,2-2h202.06M205.06,0H3C1.34,0,0,1.34,0,3v75.96c0,1.66,1.34,3,3,3h202.06c1.66,0,3-1.34,3-3V3c0-1.66-1.34-3-3-3h0Z"/>
      </g>
      <g>
        <path class="cls-2" d="M46.75,17.93c.56,0,1.23,0,1.77-.09.07-.02.14-.02.22-.02.25,0,.43.22.63.44s.63.68.63.99c0,.19-.24.36-.37.46-.1.09-1.38,1.41-1.58,1.63-.6.61-1.48,1.48-2.11,2.04-.12.1-.24.24-.41.24-.29,0-1.24-.75-1.24-1.04,0-.17.31-.41.43-.51.31-.27,2.2-1.94,2.2-2.18s-.38-.2-.53-.2h-7.31c-.78,0-1.55.05-2.32.05-.44,0-.46-.19-.46-.87v-.34c0-.44.03-.65.43-.65.78,0,1.57.03,2.35.03h7.68ZM43.77,20.65c.12.02.36.02.36.2,0,.07-.05.12-.1.17-.22.24-.29.9-.34,1.23-.49,3.12-1.55,5.28-4.09,7.24-.14.1-.38.31-.56.31-.29,0-1.4-.89-1.4-1.19,0-.15.17-.22.41-.37,1.81-1.12,3.05-2.9,3.56-4.96.24-.92.27-1.6.27-2.54,0-.14,0-.22.17-.22.22,0,1.46.1,1.72.14Z"/>
        <path class="cls-2" d="M61,27.52c0,.75.03,1.5.03,2.23,0,.46-.22.51-.85.51-.94,0-1.11-.05-1.11-.49,0-.73.03-1.46.03-2.2v-4.63c0-.1.05-.48-.27-.48-.17,0-.53.29-.66.39-.51.38-3.22,2.18-3.66,2.18-.29,0-1.33-1.04-1.33-1.36,0-.17.15-.24.27-.29,2.23-.94,4.97-2.84,6.69-4.51.88-.87,1.69-1.82,2.32-2.88.05-.09.15-.26.27-.26s.65.36,1.16.7c.19.12.66.41.66.61,0,.1-.08.14-.17.17-.38.1-.43.12-.66.41-.82.99-1.43,1.65-2.33,2.55-.26.26-.39.37-.39.77v6.57Z"/>
        <path class="cls-2" d="M73.54,25.8c0,.43.03.7.34.7.2,0,.99-.36,1.4-.54,2.32-1.07,4.73-2.67,6.54-4.48.1-.1.25-.27.41-.27.27,0,.85,1.12.85,1.46,0,.12-.1.22-.19.31-.38.37-.78.71-1.19,1.06-2.25,1.86-4.82,3.29-7.49,4.43-.2.09-.41.17-.6.27-.12.07-.29.17-.43.17-.2,0-1.14-.49-1.34-.63-.21-.15-.22-.31-.22-.6,0-.58.03-1.21.03-1.84v-6.93c0-.37,0-.75-.02-1.04-.02-.12-.05-.48-.05-.56,0-.1.05-.2.19-.2.07,0,.25.03.36.05.27.03,1.12.17,1.38.24.15.03.36.05.36.22,0,.1-.09.15-.15.22-.15.14-.15.34-.15.53-.02.26-.02.53-.02.8v6.64Z"/>
        <path class="cls-2" d="M96.25,18.58c.31,0,.56-.02.95-.1.05,0,.12-.02.19-.02.34,0,1.09.94,1.09,1.16,0,.09-.07.2-.2.43-.14.2-.31.49-.53.92-1.67,3.24-3.34,5.72-6.47,7.75-.38.24-1.98,1.24-2.33,1.24s-1.45-.83-1.45-1.16c0-.17.2-.26.34-.31,2.74-1.23,4.89-2.96,6.57-5.45.29-.43,1.31-2.08,1.31-2.5,0-.22-.27-.24-.51-.24h-3.24c-.39,0-.49.17-.71.48-.32.46-2.28,2.79-2.74,2.79-.2,0-1.45-.65-1.45-1,0-.12.07-.19.15-.24,1.79-1.41,3.76-3.95,4.55-6.1.07-.17.12-.41.27-.41.08,0,.54.2.9.37.15.09,1.02.41,1.02.6,0,.08-.08.15-.15.19-.24.08-.29.17-.58.7-.07.14-.31.48-.31.61,0,.19.12.27.29.29h3.03Z"/>
        <path class="cls-2" d="M111.28,17.88c.27,0,.56,0,.73-.03.1,0,.27-.03.38-.03.36,0,1.09.94,1.09,1.16,0,.08-.19.36-.38.66-.1.15-.2.32-.27.44-.68,1.14-1.36,2.21-2.21,3.24-.08.1-.14.19-.14.32,0,.2.1.31.25.41.94.61,2.03,1.45,2.88,2.2.41.36.83.75,1.23,1.16.07.07.12.14.12.24,0,.36-.94,1.36-1.29,1.36-.19,0-.31-.12-.43-.26-1.23-1.46-2.25-2.28-3.76-3.37-.14-.1-.24-.15-.39-.15-.22,0-.38.17-.51.29-1.26,1.17-2.72,2.2-4.26,2.98-.15.08-.6.32-.75.32-.36,0-1.14-1.14-1.14-1.45,0-.2.2-.29.36-.34,3.01-1.16,5.88-3.76,7.59-6.45.08-.14.29-.43.29-.58,0-.26-.24-.29-.49-.29h-3.53c-.73,0-1.46.03-2.2.03-.46,0-.43-.26-.43-1.04,0-.6-.02-.85.41-.85.73,0,1.46.03,2.21.03h4.63Z"/>
        <path class="cls-2" d="M124.07,22.88c0,1.12-.75,2.06-2.04,2.06-1.06,0-1.86-.73-1.86-1.79s.71-2.06,2.08-2.06c1.02,0,1.82.72,1.82,1.79Z"/>
        <path class="cls-2" d="M138.54,20.42c.39,0,1.18,0,1.53-.03.08-.02.22-.03.31-.03.36,0,1.21.82,1.21,1.12,0,.12-.14.44-.22.7-.27.82-.54,1.53-.99,2.3-.85,1.52-2.16,2.95-3.53,4.02-.48.39-2.32,1.7-2.84,1.7-.39,0-1.17-.97-1.17-1.26,0-.2.43-.36.6-.44,2.04-.92,4.14-2.88,5.23-4.84.12-.22.46-.89.46-1.11,0-.41-.46-.38-.73-.38h-6.33c-.72,0-1.43.03-2.16.03-.48,0-.48-.17-.48-.83,0-.87.02-.99.49-.99.71,0,1.45.03,2.18.03h6.45ZM137.4,16.74c.7,0,1.57-.05,2.01-.05s.46.19.46,1.04c0,.58,0,.8-.46.8-.68,0-1.35-.03-2.01-.03h-4.17c-.66,0-1.33.03-1.99.03-.48,0-.48-.2-.48-.83,0-.8.03-1,.46-1,.48,0,1.35.05,2.01.05h4.17Z"/>
        <path class="cls-2" d="M153.45,27.52c0,.75.03,1.5.03,2.23,0,.46-.22.51-.85.51-.94,0-1.11-.05-1.11-.49,0-.73.03-1.46.03-2.2v-4.63c0-.1.05-.48-.27-.48-.17,0-.53.29-.66.39-.51.38-3.22,2.18-3.66,2.18-.29,0-1.33-1.04-1.33-1.36,0-.17.15-.24.27-.29,2.23-.94,4.97-2.84,6.69-4.51.88-.87,1.69-1.82,2.32-2.88.05-.09.15-.26.27-.26s.65.36,1.16.7c.19.12.66.41.66.61,0,.1-.08.14-.17.17-.38.1-.43.12-.66.41-.82.99-1.43,1.65-2.33,2.55-.26.26-.39.37-.39.77v6.57Z"/>
        <path class="cls-2" d="M167.17,20.74c.34,0,2.04,1.35,2.38,1.63.24.2,1.19.94,1.19,1.23s-.8,1.17-1.14,1.17c-.14,0-.27-.12-.38-.22-.92-.82-1.46-1.28-2.47-1.99-.05-.03-.1-.07-.17-.07-.15,0-.2.14-.2.27v4.65c0,.68.03,1.35.03,2.03,0,.78-.02.89-1.06.89-.68,0-.97-.02-.97-.58,0-.77.05-1.53.05-2.3v-9.71c0-.44-.03-.9-.05-1.33,0-.09-.02-.24-.02-.31,0-.17.05-.26.22-.26.1,0,.46.05.58.07.77.1,1.46.17,1.46.41,0,.07-.05.17-.08.22-.15.19-.19.44-.19.9,0,.26.02.58.02,1v2.55c0,.14.08.17.14.17.07,0,.1-.02.15-.07.12-.14.31-.37.49-.37Z"/>
        <path class="cls-2" d="M45.48,37.92c.7,0,1.43-.03,2.01-.03.41,0,.39.19.39.83s.02.83-.39.83c-.63,0-1.33-.03-2.01-.03h-8.89c-.34,0-.48.14-.48.48v2.71c0,2.16-.22,4.36-.88,6.44-.21.61-.51,1.38-.85,1.92-.07.12-.15.2-.31.2-.36,0-1.31-.49-1.31-.83,0-.1.17-.41.22-.53,1.24-2.42,1.43-4.82,1.43-7.49v-2.13c0-.53-.03-1.06-.03-1.58,0-.66.34-.8.94-.8.54,0,1.09.02,1.63.02h2.33c.31,0,.48-.12.48-.44.02-.34-.03-.68-.07-1.02,0-.05-.02-.1-.02-.15,0-.2.14-.24.31-.24.2,0,1.29.1,1.55.14.14.02.41.03.41.22,0,.12-.07.15-.2.26-.17.15-.2.36-.19.8,0,.32.17.44.48.44h3.46ZM42.26,44.54c0,.34.14.48.46.48h1.43c.46,0,.9-.02,1.36-.02s1.06.07,1.06.66c0,.32-.03.65-.03.95v3.3c0,.24.03.77.03,1.12s-.22.34-.89.34-.88.02-.88-.32v-.24c0-.27-.1-.37-.38-.37h-5.18c-.27,0-.39.12-.39.37v.19c0,.36-.17.36-.89.36s-.92,0-.92-.34c0-.26.03-.77.03-1.12v-3.29c0-.31-.02-.63-.02-.95,0-.61.6-.66,1.06-.66s.92.02,1.4.02h.49c.32,0,.48-.14.48-.48v-3.12c0-.44-.02-.89-.07-1.29,0-.05-.02-.1-.02-.15,0-.2.14-.24.31-.24.22,0,1.23.1,1.48.12.15.02.46.03.46.24,0,.1-.1.14-.2.22-.17.1-.2.19-.19.9,0,.32.15.44.46.44h2.42c.61,0,1.24-.05,1.86-.05.39,0,.38.2.38.8s.02.78-.38.78c-.61,0-1.24-.03-1.86-.03h-2.42c-.32,0-.46.14-.46.46v.92ZM44.36,48.94c.29,0,.44-.17.48-.46v-1.48c-.03-.29-.19-.44-.48-.48h-5.06c-.29.03-.44.19-.48.48v1.48c.03.29.19.46.48.46h5.06Z"/>
        <path class="cls-2" d="M63.3,37.82c0,.32.14.46.48.46h.71c.63,0,1.26-.03,1.89-.03.41,0,.41.17.41.77,0,.56,0,.77-.39.77-.65,0-1.28-.05-1.91-.05h-.71c-.34,0-.48.14-.48.48v.27c0,.34.14.48.48.48h.48c.39,0,.78-.03,1.18-.03.54,0,.82.14.82.72,0,.46-.02.9-.02,1.35v5.42c0,.39.02.77.02,1.16,0,1.5-.56,1.89-2.01,1.89-.44,0-.8,0-.8-1.18,0-.22.03-.51.31-.51.17,0,.34.03.54.03.41,0,.39-.29.39-.83v-.97c0-.34-.15-.48-.48-.48h-.49c-.34,0-.48.14-.48.48v.22c0,.8.05,1.6.05,2.42,0,.46-.15.51-.8.51s-.8-.03-.8-.51c0-.82.05-1.62.05-2.42v-.22c0-.34-.14-.48-.48-.48h-.49c-.32,0-.48.14-.48.48v.89c0,.7.03,1.4.03,2.11,0,.46-.12.49-.8.49s-.8-.03-.8-.49c0-.7.03-1.4.03-2.11v-5.88c0-.44-.02-.9-.02-1.35,0-.58.25-.73.8-.73.38,0,.77.03,1.14.03h.51c.34,0,.48-.14.48-.48v-.27c0-.32-.14-.48-.48-.48h-.65c-.58,0-1.16.02-1.74.03-.27,0-.37.08-.54.29-.15.19-.46.6-.71.6-.41,0-1.77-1.65-2.06-2.03-.08-.08-.14-.15-.26-.15s-.19.08-.25.17c-.49.75-1.29,1.79-1.91,2.45-.03.05-.07.08-.07.15,0,.12.08.17.19.17.2.02.39.02.58.02.29-.02.39-.14.43-.43,0-.22-.02-.46-.07-.68v-.14c0-.17.14-.19.27-.19.24,0,1.12.07,1.41.1.12,0,.41.03.41.22,0,.1-.12.15-.22.2-.19.1-.19.24-.2.44.02.34.14.44.48.46.34,0,.97-.03,1.23-.03.36,0,.34.2.34.71s0,.7-.34.7c-.41,0-.82-.05-1.23-.03-.34,0-.48.14-.48.48v.14c0,.34.14.48.48.48.56.02,1.11-.03,1.67-.03.41,0,.41.17.41.71s0,.72-.41.72c-.58,0-1.14-.03-1.72-.03h-2.35c-.58,0-1.16.03-1.74.03-.41,0-.39-.17-.39-.72s-.02-.71.41-.71c.53,0,1.04.05,1.57.03.34,0,.48-.14.48-.48v-.14c0-.31-.12-.48-.43-.48-.36-.02-.72.03-1.07.03s-.34-.19-.34-.77c0-.07,0-.14.02-.22-.02-.27-.05-.37-.29-.54-.19-.1-.63-.43-.63-.66,0-.12.12-.2.36-.44.97-.97,2.18-2.64,2.71-3.9.05-.1.08-.19.22-.19.12,0,.82.24.97.29.43.14.73.22.73.41,0,.14-.26.17-.36.19-.03,0-.05.02-.05.05,0,.02,0,.03.02.03.51.72,1.23,1.45,1.91,2.01.03.03.07.05.14.05.1,0,.15-.08.15-.17.02-.46-.02-.7.41-.7.63,0,1.26.03,1.89.03h.65c.34,0,.48-.14.48-.48.02-.41,0-.82-.05-1.23-.02-.07-.02-.12-.02-.17,0-.2.14-.22.29-.22.27,0,1.09.05,1.38.07.15,0,.41.02.41.22,0,.1-.09.15-.19.24-.17.14-.19.36-.19.77v.34ZM55.62,50.38h-1.18c-.27,0-.39.12-.39.39,0,.1.02.2.02.31,0,.31-.2.29-.82.29-.53,0-.77.02-.77-.29,0-.22.03-.65.03-.97v-2.64c0-.27-.02-.53-.02-.8,0-.49.51-.56.9-.56.32,0,.66.02.99.02h1.17c.32,0,.66-.02.99-.02.37,0,.92.07.92.56,0,.26-.03.49-.03.8v2.28c0,.17.03.94.03.95,0,.31-.19.29-.8.29-.68,0-.8.02-.8-.36,0-.22-.12-.24-.25-.26ZM55.44,49.04c.29-.03.44-.17.48-.48v-.61c-.03-.29-.19-.44-.48-.48h-.92c-.29.03-.44.19-.48.48v.61c.03.31.19.44.48.48h.92ZM61.74,42.77c-.03-.29-.19-.46-.48-.46h-.49c-.29,0-.44.17-.48.46v.34c.03.29.19.44.48.48h.49c.29-.03.44-.19.48-.48v-.34ZM60.77,44.92c-.29,0-.44.17-.48.46v.32c.03.29.19.46.48.46h.49c.29,0,.44-.17.48-.46v-.32c-.03-.29-.19-.46-.48-.46h-.49ZM64.21,43.59c.29-.03.44-.19.48-.48v-.34c-.03-.29-.19-.46-.48-.46h-.49c-.29,0-.44.17-.48.46v.34c.03.29.19.44.48.48h.49ZM63.23,45.7c.03.29.19.46.48.46h.49c.29,0,.44-.17.48-.46v-.32c-.03-.29-.19-.46-.48-.46h-.49c-.29,0-.44.17-.48.46v.32ZM65.26,38.11c-.15,0-.24-.1-.43-.38-.12-.14-.27-.34-.51-.61-.07-.08-.34-.34-.34-.46,0-.22.8-.63,1.02-.63.17,0,.41.27.66.53.05.05.08.1.14.15.12.14.53.58.53.73,0,.29-.82.66-1.07.66Z"/>
        <path class="cls-2" d="M71.88,39.26c.32.05.63.09.63.31,0,.08-.08.15-.15.2-.17.09-.22.17-.24.36-.12.89-.17,1.52-.36,2.42-.27,1.4-.41,1.57-.7,1.57s-.89-.2-.89-.54c0-.09.02-.14.03-.2.32-.99.53-2.03.65-3.06.02-.24.02-.43.03-.58.02-.43.03-.58.27-.58.12,0,.6.08.71.12ZM72.63,38.34c0-.8-.03-1.89-.03-1.99,0-.26.14-.31.39-.31.27,0,1.02.07,1.31.1.15.02.44.03.44.26,0,.14-.14.22-.24.31-.19.15-.21.44-.21.94v10.88c0,.77.03,1.53.03,2.3,0,.46-.24.54-.87.54-.7,0-.87-.15-.87-.6,0-.75.03-1.5.03-2.25v-10.18ZM79.3,37.46c.32,0,.46-.12.48-.44l-.05-.53s-.02-.09-.02-.12c0-.22.14-.26.31-.26.2,0,1.41.09,1.62.12.12.02.29.03.29.19,0,.14-.14.2-.22.26-.15.1-.19.17-.21.34-.02.34.14.44.46.44h1.21c.56,0,1.11-.02,1.67-.02.38,0,.36.14.36.63s0,.65-.34.65c-.56,0-1.12-.03-1.69-.03h-1.36c-.24,0-.32.09-.32.32v.14c0,.22.08.32.31.32h.89c.56,0,1.14-.03,1.72-.03.36,0,.34.14.34.58s.02.58-.36.58c-.58,0-1.14-.03-1.7-.03h-.87c-.24,0-.32.1-.32.32v.19c0,.24.08.32.31.32h1.55c.63,0,1.24-.03,1.87-.03.37,0,.36.14.36.65s.02.63-.36.63c-.63,0-1.24-.03-1.87-.03h-5.23c-.63,0-1.24.03-1.87.03-.39,0-.38-.14-.38-.77,0-.19-.1-.24-.27-.24-.36.03-.38-.15-.44-.43-.15-.65-.34-1.29-.58-1.92-.03-.08-.08-.19-.08-.27,0-.29.63-.46.78-.46.29,0,.38.29.65,1.04.15.39.39,1.09.48,1.48.07.36.12.32,1.72.32h1.35c.24,0,.32-.09.32-.32v-.17c0-.24-.08-.34-.32-.34h-.68c-.56,0-1.12.03-1.7.03-.38,0-.36-.14-.36-.58s-.02-.58.36-.58c.58,0,1.14.03,1.7.03h.68c.24,0,.32-.1.32-.32v-.14c0-.24-.08-.32-.32-.32h-1.23c-.56,0-1.12.03-1.67.03-.36,0-.36-.15-.36-.65s-.02-.63.36-.63c.56,0,1.11.02,1.67.02h1.07ZM82.52,48.88c0-.34-.14-.48-.46-.48h-2.83c-.34,0-.48.14-.48.48-.02.6.03,1.21.03,1.82s-.15.63-.85.63-.9,0-.9-.56c0-.72.05-1.43.05-2.13v-2.95c0-.48-.03-.94-.03-1.41,0-.66.15-.9.83-.9.43,0,.85.02,1.28.02h2.96c.42,0,.85-.02,1.28-.02.68,0,.85.22.85.89,0,.48-.03.94-.03,1.41v2.67c0,.41.03.82.03,1.24,0,1.48-.49,1.74-2.33,1.74-.87,0-1.21-.1-1.21-1.07,0-.32.03-.56.31-.56.26,0,.49.03.73.03.71,0,.77-.03.77-.65v-.2ZM82.2,45.39c.2,0,.32-.14.32-.34v-.09c0-.2-.12-.32-.32-.32h-3.12c-.2,0-.32.12-.32.32v.09c0,.2.12.34.32.34h3.12ZM78.76,46.94c0,.2.12.34.32.34h3.12c.2,0,.32-.14.32-.34v-.1c0-.2-.12-.32-.32-.32h-3.12c-.2,0-.32.12-.32.32v.1Z"/>
        <path class="cls-2" d="M95.08,43.76s-.03.09-.03.14c0,.19.14.26.31.26.26,0,.51-.02.75-.02.44,0,.43.22.43.77,0,.58.02.8-.43.8-.53,0-1.04-.05-1.55-.05h-.34c-.32,0-.46.15-.46.48v.39c0,.34.14.48.46.48h.15c.49,0,.99-.03,1.48-.03.43,0,.41.26.41.78s.02.8-.41.8c-.49,0-.99-.03-1.48-.03h-.15c-.32,0-.44.14-.46.46-.02.63.03,1.26.03,1.89,0,.51-.15.53-.85.53s-.85-.02-.85-.54c0-.61.07-1.24.05-1.87,0-.32-.15-.46-.48-.46h-.05c-.48,0-.97.03-1.46.03-.43,0-.43-.22-.43-.8,0-.53-.02-.78.41-.78.49,0,.99.03,1.48.03h.05c.32,0,.48-.14.48-.48v-.39c0-.32-.15-.48-.48-.48h-.27c-.53,0-1.04.05-1.55.05-.44,0-.41-.26-.41-.78,0-.56-.02-.78.41-.78.21,0,.39.02.58.02.17-.02.31-.08.31-.27,0-.05-.02-.08-.03-.14-.02-.03-.03-.1-.07-.17-.15-.34-.44-1.02-.44-1.12,0-.14.12-.22.22-.29.03-.02.05-.03.05-.07s-.03-.07-.07-.07c-.27,0-.53.03-.8.03-.44,0-.43-.24-.43-.78s-.02-.78.43-.78c.58,0,1.17.03,1.75.03h.39c.34,0,.48-.15.48-.48v-.29c0-.34-.14-.48-.48-.48-.49-.02-.99.03-1.48.03-.44,0-.41-.24-.41-.78s-.02-.78.41-.78c.49,0,.99.05,1.48.03.31,0,.44-.12.48-.44-.02-.32-.02-.56-.07-.89v-.17c0-.19.12-.22.27-.22.21,0,1.16.08,1.4.12.14.02.38.03.38.22,0,.1-.08.15-.2.24-.17.14-.2.31-.19.66,0,.34.15.48.48.48.48.02.95-.03,1.43-.03.43,0,.41.2.41.78,0,.54.02.78-.39.78-.49,0-.97-.05-1.45-.03-.34,0-.48.14-.48.48v.29c0,.32.14.48.48.48h.31c.6,0,1.17-.03,1.77-.03.42,0,.41.2.41.78s.02.78-.41.78c-.27,0-.54-.02-.82-.03-.05,0-.07.03-.07.07,0,.02,0,.05.03.07.27.08.46.15.46.32,0,.14-.14.15-.24.17-.1.02-.2.07-.24.17-.14.31-.25.63-.39.94ZM92.05,42c-.17.02-.31.08-.31.27,0,.05.02.1.03.14.02.05.05.14.1.24.14.36.38.92.38,1.06,0,.17-.15.26-.29.31-.03.03-.05.05-.05.09,0,.02,0,.05.08.07h.87c.34,0,.51-.08.65-.39.2-.44.34-.89.49-1.33,0-.03.02-.09.02-.14,0-.22-.17-.29-.36-.31h-1.62ZM101.49,49.75c-.12,0-.22.09-.29.15-.27.31-1.07,1.19-1.45,1.19-.24,0-.53-.27-.68-.44-.03-.03-.09-.05-.12-.05-.08,0-.12.07-.14.14v.17c0,.48-.17.48-.83.48s-.83,0-.83-.49c0-.77.05-1.53.05-2.32v-9.45c0-.49-.03-1-.03-1.52,0-.63.25-.83.88-.83.36,0,.72.03,1.07.03h2.3c.39,0,.77-.03,1.16-.03.77,0,.9.26.9.95,0,.29-.03.65-.03,1.11v.51c0,.37.02.77.02,1.14,0,.58-.08,1.04-.65,1.31-.48.24-1.14.34-1.67.34-.6,0-.89-.15-.89-1.28,0-.22.03-.37.31-.37.19,0,.41.03.63.03.54,0,.63-.17.63-.66v-1.02c0-.32-.15-.48-.48-.48h-2.09c-.34,0-.48.15-.48.48v3.46c0,.34.14.48.48.48h2.42c.39,0,.8-.02,1.19-.02.31,0,.56.03.78.27.15.19.24.39.24.63,0,.29-.15.95-.22,1.26-.21.95-.68,2.09-1.12,2.95-.05.12-.08.2-.08.32,0,.15.08.27.17.39.51.49.92.83,1.55,1.21.14.08.22.14.22.31,0,.39-.37,1.19-.75,1.19-.43,0-1.57-1.06-1.87-1.38-.08-.08-.17-.15-.29-.15ZM98.97,49.74c.07,0,.1-.02.15-.05.41-.32.78-.68,1.12-1.07.08-.1.15-.22.15-.36,0-.15-.05-.24-.1-.36-.6-1.09-1-2.25-1.17-3.49-.02-.07-.05-.12-.12-.14-.17.03-.2.14-.22.31v4c0,.32,0,.65.02.95,0,.12.05.2.17.2ZM101.35,46.72c.12,0,.17-.08.22-.17.22-.46.63-1.5.63-1.99,0-.27-.19-.31-.48-.31h-.95c-.2,0-.37.08-.37.32v.12c.17.65.41,1.29.73,1.89.07.07.12.14.22.14Z"/>
        <path class="cls-2" d="M112.43,38.26c.14.05.34.12.34.29,0,.1-.07.12-.24.22-.29.15-.36.31-.53.73-.6,1.52-.95,3.22-.95,4.84,0,.32.07,2.38.46,2.38.15,0,.39-.49.46-.66.1-.22.2-.41.36-.41.17,0,.61.36.61.54,0,.15-.68,1.7-.68,2.47,0,.17.05.56.07.72.02.08.03.19.03.26,0,.43-.97.83-1.33.83-.29,0-.49-.37-.72-.83-.8-1.62-1.04-3.44-1.04-5.23,0-1.99.34-3.73.87-5.64.08-.29.17-.56.22-.85.03-.15.07-.37.25-.37.14,0,1.57.61,1.81.72ZM114.54,46.4c.73.9,1.45,1.19,2.59,1.19,1.28,0,2.52-.2,3.75-.54.08-.03.25-.07.36-.07.27,0,.31.41.31,1.28,0,.2.02.51-.2.63-.48.26-3.36.51-4.04.51-2.76,0-3.9-1.43-3.9-1.7,0-.24.6-1.45.92-1.45.1,0,.17.08.22.15ZM115.16,38.96c.7.15,1.52.26,2.23.26.85,0,1.75-.14,2.59-.34.08-.02.2-.05.31-.05.24,0,.31.2.34.41.03.31.07.61.07.92,0,.36,0,.49-.32.56-.68.14-2.15.24-2.86.24-.53,0-2.62-.1-2.98-.34-.19-.12-.17-.48-.17-.66,0-.82.08-1.07.36-1.07.12,0,.31.05.44.08Z"/>
        <path class="cls-2" d="M128.64,40.69c1.99-.7,4.14-1.57,6.28-1.57,1.24,0,2.47.34,3.35,1.24.75.78,1.16,1.91,1.16,3,0,2.62-2.08,4.46-4.36,5.4-.73.29-2.55.85-3.32.85-.29,0-.41-.17-.54-.41-.14-.26-.39-.87-.39-1.14,0-.31.36-.34.58-.36,2.38-.19,6.11-1.46,6.11-4.38,0-1.52-1.17-2.37-2.6-2.37-2.37,0-5.01,1.26-7.08,2.33-.14.07-.27.14-.44.14-.53,0-1.29-1.23-1.29-1.7,0-.22.2-.29.92-.51.39-.12.92-.27,1.63-.53Z"/>
        <path class="cls-2" d="M146.89,39.59c.14.03.38.07.38.24,0,.1-.07.14-.17.22-.24.19-.25.53-.31.82-.09.6-.14,1.19-.14,1.81,0,1.14.1,2.49.54,3.56.2.48.77,1.48,1.36,1.48.48,0,.97-.75,1.17-1.12.1-.17.24-.43.46-.43.36,0,1.23.7,1.23,1,0,.32-.77,1.21-1,1.48-.49.56-1.02,1.07-1.82,1.07-1.26,0-2.25-1.14-2.81-2.18-.85-1.6-.99-3.75-.99-5.55,0-.27.05-2.44.09-2.59.02-.14.12-.19.24-.19.22,0,1.48.32,1.77.37ZM153.82,39.25c.38,0,1.81,1.07,2.62,2.64.48.9,1,2.52,1,3.54,0,.32-.17.41-.46.49-.27.09-.66.15-.95.15-.54,0-.53-.24-.56-.65-.21-1.99-.9-3.61-2.52-4.85-.1-.07-.15-.14-.15-.26,0-.32.68-1.07,1.02-1.07Z"/>
        <path class="cls-2" d="M162.73,39.2c2.49-.15,4.97-.41,7.46-.7,1.28-.15,2.59-.32,3.87-.53.07-.02.14-.02.2-.02.26,0,.29.22.34.43.05.29.14.95.14,1.24,0,.37-.36.34-.75.36-1,.02-1.87.02-2.83.36-1.33.48-2.25,1.31-2.91,2.54-.49.9-.82,1.96-.82,3,0,1.98,1.28,2.45,3,2.45.31,0,.68-.02.85-.02.25,0,.39.02.39.29,0,.37-.12,1.21-.31,1.52-.12.17-.31.17-.49.17-2.89,0-5.38-.92-5.38-4.24,0-1.72.71-3.63,1.87-4.89.08-.08.31-.31.31-.41,0-.14-.15-.2-.25-.2-.14,0-.9.12-1.09.15-1.14.15-2.67.41-3.76.7-.08.02-.17.03-.26.03-.41,0-.56-1.62-.56-1.79,0-.44.24-.39.99-.44Z"/>
      </g>
      <polygon points="109.08 70.77 103.55 65.24 104.96 63.82 109.08 67.94 113.19 63.82 114.61 65.24 109.08 70.77"/>
    </g>
  </g>
</svg>