<?xml version="1.0" encoding="UTF-8"?>
<svg id="_ガイドライン_700" data-name="ガイドライン_700" xmlns="http://www.w3.org/2000/svg" xmlns:xlink="http://www.w3.org/1999/xlink" viewBox="0 0 490 170">
  <defs>
    <style>
      .cls-1 {
        fill: #fff;
      }

      .cls-2 {
        stroke: #fff;
        stroke-miterlimit: 10;
      }

      .cls-2, .cls-3 {
        fill: none;
      }

      .cls-4 {
        opacity: .4;
      }

      .cls-5 {
        fill: #221815;
      }

      .cls-6 {
        clip-path: url(#clippath);
      }
    </style>
    <clipPath id="clippath">
      <rect class="cls-3" x="30.04" y="283.07" width="430" height="365.44"/>
    </clipPath>
  </defs>
  <g class="cls-6">
    <image width="1024" height="1111" transform="translate(-173 -51.67) scale(.82)" xlink:href="../../../Downloads/441-1375-愛知県新城市的場２２−１-Google-マップ-07-31-2025_07_14_PM.png"/>
  </g>
  <g>
    <line class="cls-2" x1="144.26" y1="165.62" x2="362.76" y2="165.62"/>
    <g class="cls-4">
      <g>
        <path class="cls-1" d="M99.83,4.38l34.59,74.17h-8.01l-11.67-24.4h-31.95l-11.55,24.4h-8.27L98.01,4.38h1.81ZM98.89,20.14l-12.71,26.85h25.36l-12.65-26.85Z"/>
        <path class="cls-1" d="M199.32,35.08l-5.6,3.48c-4.83-6.42-11.43-9.63-19.79-9.63-6.68,0-12.23,2.15-16.64,6.45s-6.62,9.52-6.62,15.66c0,4,1.02,7.76,3.05,11.28,2.03,3.53,4.82,6.26,8.36,8.21,3.54,1.95,7.51,2.92,11.91,2.92,8.06,0,14.64-3.21,19.74-9.63l5.6,3.68c-2.62,3.95-6.14,7.01-10.56,9.19s-9.45,3.27-15.1,3.27c-8.67,0-15.87-2.76-21.58-8.27-5.71-5.51-8.57-12.22-8.57-20.12,0-5.31,1.34-10.24,4.01-14.8,2.67-4.55,6.34-8.11,11.02-10.66,4.67-2.55,9.9-3.83,15.68-3.83,3.63,0,7.13.55,10.51,1.66s6.24,2.55,8.6,4.34c2.35,1.78,4.35,4.05,6,6.81Z"/>
        <path class="cls-1" d="M267.98,35.08l-5.6,3.48c-4.83-6.42-11.43-9.63-19.79-9.63-6.68,0-12.23,2.15-16.64,6.45s-6.62,9.52-6.62,15.66c0,4,1.02,7.76,3.05,11.28,2.03,3.53,4.82,6.26,8.36,8.21,3.54,1.95,7.51,2.92,11.91,2.92,8.06,0,14.64-3.21,19.74-9.63l5.6,3.68c-2.62,3.95-6.14,7.01-10.56,9.19s-9.45,3.27-15.1,3.27c-8.67,0-15.87-2.76-21.58-8.27-5.71-5.51-8.57-12.22-8.57-20.12,0-5.31,1.34-10.24,4.01-14.8,2.67-4.55,6.34-8.11,11.02-10.66,4.67-2.55,9.9-3.83,15.68-3.83,3.63,0,7.13.55,10.51,1.66s6.24,2.55,8.6,4.34c2.35,1.78,4.35,4.05,6,6.81Z"/>
        <path class="cls-1" d="M329.65,60.35l5.95,3.13c-1.95,3.83-4.21,6.92-6.76,9.28-2.56,2.35-5.43,4.14-8.63,5.37-3.2,1.23-6.81,1.84-10.85,1.84-8.95,0-15.95-2.93-20.99-8.8-5.05-5.87-7.57-12.5-7.57-19.89,0-6.96,2.14-13.16,6.41-18.61,5.42-6.92,12.67-10.39,21.75-10.39s16.82,3.55,22.41,10.64c3.97,5.01,5.99,11.26,6.06,18.76h-49.36c.13,6.37,2.17,11.6,6.11,15.67,3.94,4.07,8.8,6.11,14.59,6.11,2.79,0,5.51-.49,8.15-1.46,2.64-.97,4.89-2.26,6.74-3.87s3.85-4.2,6.01-7.79ZM329.65,45.57c-.94-3.76-2.31-6.77-4.11-9.03-1.8-2.25-4.18-4.07-7.14-5.45-2.96-1.38-6.08-2.07-9.34-2.07-5.39,0-10.01,1.73-13.88,5.19-2.83,2.52-4.96,6.3-6.41,11.34h40.89Z"/>
        <path class="cls-1" d="M381.72,29.69l-4.54,4.69c-3.78-3.66-7.47-5.5-11.07-5.5-2.29,0-4.26.76-5.89,2.27s-2.45,3.28-2.45,5.29c0,1.78.67,3.48,2.02,5.09,1.35,1.65,4.18,3.58,8.49,5.8,5.25,2.72,8.83,5.34,10.71,7.87,1.85,2.55,2.78,5.43,2.78,8.62,0,4.5-1.58,8.32-4.75,11.45s-7.12,4.69-11.87,4.69c-3.17,0-6.19-.69-9.07-2.07s-5.26-3.28-7.15-5.7l4.44-5.04c3.6,4.07,7.43,6.1,11.47,6.1,2.83,0,5.24-.91,7.23-2.72,1.99-1.82,2.98-3.95,2.98-6.4,0-2.02-.66-3.81-1.97-5.39-1.31-1.55-4.28-3.5-8.89-5.85-4.95-2.55-8.32-5.08-10.11-7.56-1.79-2.49-2.68-5.33-2.68-8.52,0-4.17,1.42-7.63,4.27-10.39,2.84-2.76,6.44-4.13,10.78-4.13,5.05,0,10.13,2.47,15.25,7.41Z"/>
        <path class="cls-1" d="M426.98,29.69l-4.54,4.69c-3.78-3.66-7.47-5.5-11.07-5.5-2.29,0-4.26.76-5.89,2.27s-2.45,3.28-2.45,5.29c0,1.78.67,3.48,2.02,5.09,1.35,1.65,4.18,3.58,8.49,5.8,5.25,2.72,8.83,5.34,10.71,7.87,1.85,2.55,2.78,5.43,2.78,8.62,0,4.5-1.58,8.32-4.75,11.45s-7.12,4.69-11.87,4.69c-3.17,0-6.19-.69-9.07-2.07s-5.26-3.28-7.15-5.7l4.44-5.04c3.6,4.07,7.43,6.1,11.47,6.1,2.83,0,5.24-.91,7.23-2.72,1.99-1.82,2.98-3.95,2.98-6.4,0-2.02-.66-3.81-1.97-5.39-1.31-1.55-4.28-3.5-8.89-5.85-4.95-2.55-8.32-5.08-10.11-7.56-1.79-2.49-2.68-5.33-2.68-8.52,0-4.17,1.42-7.63,4.27-10.39,2.84-2.76,6.44-4.13,10.78-4.13,5.05,0,10.13,2.47,15.25,7.41Z"/>
      </g>
    </g>
    <g>
      <path d="M170.28,123.85c-.76,0-1.2.02-1.67.09v-1.73c.46.08.85.09,1.69.09h3.23c.61-1.06.89-1.82,1.18-2.94l1.56.47c-.36.93-.72,1.67-1.18,2.47h.74c.82,0,1.2-.02,1.67-.09v1.73c-.53-.08-.91-.09-1.67-.09h-1.78v1.61h1.71c.74,0,1.16-.02,1.65-.11v1.71c-.49-.08-.87-.09-1.65-.09h-1.12c.57.76,1.1,1.21,2.22,1.94-.36.55-.55.87-.82,1.48-1.27-1.12-1.48-1.35-2.07-2.3.08.91.08,1.01.08,1.58v2.24c0,.67.04,1.1.11,1.59h-1.84c.06-.46.09-.95.09-1.56v-2.22c0-.44,0-.59.08-1.44-.91,1.71-1.77,2.7-3.34,3.83-.23-.63-.49-1.1-.85-1.58,1.56-.99,2.6-2.05,3.49-3.57h-1.48c-.8,0-1.14.02-1.67.09v-1.71c.49.09.87.11,1.71.11h2.07v-1.61h-2.13ZM175.6,117.76c.85,0,1.23-.02,1.71-.09v1.73c-.49-.08-.95-.09-1.71-.09h-4.88c-.8,0-1.23.02-1.73.09v-1.73c.46.08.87.09,1.77.09h1.63v-.38c0-.63-.02-.89-.09-1.37h1.92c-.08.46-.09.7-.09,1.37v.38h1.48ZM170.99,122.25c-.28-1.1-.51-1.69-.91-2.41l1.44-.47c.46.87.65,1.39.93,2.41l-1.46.47ZM184.37,121.95c.83,0,1.29-.04,1.73-.11v1.8c-.46-.08-.82-.09-1.58-.09h-.57v7.88c0,1.06.02,1.56.11,2.11h-1.9c.09-.57.11-1.06.11-2.11v-7.88h-2.43c-.02,4.63-.78,7.71-2.43,10.02-.61-.55-.87-.72-1.56-1.08,1.86-2.28,2.33-4.73,2.33-12.05,0-1.39-.04-2.11-.11-2.73,2.05-.02,5.3-.83,6.43-1.65l1.31,1.54c-.17.04-.23.06-.65.23-1.52.59-2.81.91-5.31,1.33v2.81h4.5Z"/>
      <path d="M193.41,118.4c0-.95-.04-1.54-.11-2.11h1.84c-.09.63-.11,1.16-.11,2.11v2.68h.17c.59,0,1.08-.04,1.42-.08v1.67c-.44-.06-.93-.08-1.4-.08h-.19v4.73c.51-.29.76-.44,1.46-.87l.04,1.69c-1.31.83-2.28,1.37-4,2.16-.11.06-.38.19-.78.4l-.47-1.82c.59-.13,1.1-.32,2.15-.78v-5.5h-.36c-.57,0-1.04.04-1.5.09v-1.71c.49.06.91.09,1.52.09h.34v-2.68ZM204.49,120.58c.17,2.43.38,3.93.78,5.58.65-1.39,1.14-2.88,1.29-3.97l1.71.59q-.17.4-.36.91c-.8,2.11-1.35,3.32-2.03,4.48.59,1.69,1.25,3.02,1.52,3.02.19,0,.3-.55.49-2.64.51.57.78.82,1.27,1.08-.19,1.52-.32,2.13-.63,2.77-.25.51-.61.78-1.01.78-.46,0-.99-.36-1.46-.95-.51-.65-.83-1.23-1.33-2.41-1.1,1.39-2.11,2.3-3.78,3.34-.34-.57-.65-.91-1.21-1.31,2.03-1.1,3.19-2.09,4.38-3.74-.65-2.09-.99-4.18-1.23-7.54h-3.97v.55c0,.23-.02,1.42-.02,1.75h1.96c.63,0,1.18-.02,1.59-.08q0,.15-.02.44s0,.13-.02.3c-.08,2.79-.28,4.88-.59,5.75-.25.72-.72.97-1.86.97-.32,0-.74-.02-1.21-.06-.04-.7-.09-.99-.3-1.65.4.08,1.03.13,1.31.13.47,0,.66-.09.74-.34.17-.64.3-1.99.36-3.93h-2.01c-.23,4.25-1.01,6.8-2.7,8.88-.47-.55-.76-.78-1.42-1.14.74-.82,1.29-1.75,1.67-2.7.61-1.58.91-4.19.91-8.05,0-1.25-.02-1.97-.1-2.52.49.08,1.14.11,1.86.11h3.72c-.02-.74-.02-.95-.02-1.37-.02-.68-.04-1.01-.1-1.42h1.82c-.09.44-.11.82-.11,1.52,0,.42,0,.66.02,1.27h1.99c.85,0,1.48-.04,1.96-.11v1.78c-.59-.06-1.44-.1-2.13-.1h-1.75ZM206.94,118.95c-.7-.8-1.18-1.21-2.09-1.8l1.06-.91c.82.51,1.31.93,2.11,1.71l-1.08,1.01Z"/>
      <path d="M222.53,121.29q-.06.34-.08,1.44c-.08,3.23-.61,5.07-1.9,6.72-1.14,1.46-2.52,2.41-4.86,3.36-.42-.85-.63-1.14-1.25-1.8,1.54-.47,2.43-.91,3.38-1.67,1.96-1.58,2.62-3.32,2.62-6.99,0-.53,0-.68-.08-1.06h2.16ZM230.14,118.88c-.21.27-.27.38-.49.82-1.33,2.7-2.96,4.4-5.47,5.69-.46-.66-.68-.91-1.4-1.46,1.31-.55,2.01-.99,2.87-1.79.83-.76,1.42-1.56,1.92-2.54h-10.27c-1.21,0-1.73.02-2.45.09v-2.01c.68.09,1.27.13,2.47.13h10.02c1.18,0,1.31-.02,1.75-.15l1.06,1.21Z"/>
      <path d="M242.78,116.88q-.15.21-.4.72c-.4.87-.53,1.18-.78,1.59.15-.02.42-.04.82-.06l4.52-.06c.7,0,.87-.04,1.21-.15l1.06,1.03c-.19.25-.25.38-.44,1.04-.85,2.83-2.22,5.37-3.85,7.25-1.75,1.99-3.85,3.51-6.7,4.78-.44-.78-.65-1.04-1.33-1.63,2.88-1.18,4.78-2.49,6.57-4.54,1.4-1.61,2.51-3.68,3.23-6.04l-6,.09c-1.27,1.96-2.71,3.51-4.46,4.86-.49-.66-.72-.87-1.54-1.37,2.11-1.42,3.49-2.96,4.86-5.39.65-1.16.97-1.94,1.06-2.62l2.16.47Z"/>
      <path d="M259.41,118.9c0-1.06-.02-1.25-.1-1.88h2.2c-.1.63-.11.99-.11,1.88v2.43l7.23-.91c.65-.08.93-.15,1.31-.3l1.21,1.06c-.21.29-.23.3-.49.87-1.12,2.28-2.41,3.78-4.61,5.37-.63-.68-.85-.87-1.59-1.27,1.42-.82,2.66-1.9,3.46-3.08.27-.36.32-.46.59-.95q-.47.09-1.01.17l-6.11.82v4.31c0,1.69.06,2.05.44,2.35.34.3,1.08.42,2.54.42,2.07,0,4.14-.27,5.68-.72l.09,2.15c-.51.02-.66.04-1.14.09-2.11.23-3.34.32-4.63.32-2.49,0-3.61-.27-4.27-.99-.57-.65-.68-1.18-.68-3.3v-4.4l-1.8.25c-1.46.21-1.5.21-2.18.38l-.23-2.03c.17.02.3.02.38.02.42,0,1.04-.06,1.84-.15l1.99-.27v-2.64Z"/>
      <path d="M291.19,132.54c-1.5-1.9-3.59-3.89-5.92-5.75-2.2,2.49-4.27,4.08-7.25,5.56-.42-.82-.61-1.06-1.29-1.77,1.46-.57,2.37-1.08,3.81-2.11,2.92-2.11,5.28-5.01,6.55-8.07q.06-.17.11-.29t.08-.17c-.23.02-.34.02-.59.02l-5.5.1c-1.18.02-1.54.04-2.43.15l-.06-2.07c.65.08,1.12.11,1.96.11h.51l6.32-.09c.91,0,1.08-.04,1.5-.19l1.06,1.12c-.23.25-.38.51-.57.97-.91,2.11-1.88,3.78-3.04,5.24,2.39,1.73,3.91,3.06,6.32,5.49l-1.58,1.75Z"/>
      <path d="M297.97,124.74c.49-1.69.66-2.9.7-5.01l1.33.3c-.06,2.01-.27,3.66-.7,5.26l-1.33-.55ZM302.19,131.2c0,.91.04,1.59.11,2.28h-1.9c.1-.63.13-1.46.13-2.32v-13.14c0-.8-.04-1.31-.13-1.97h1.9c-.08.66-.11,1.16-.11,1.97v1.56l1.12-.46c.44.87.55,1.18.95,2.49l-1.21.55c-.23-.99-.47-1.71-.85-2.51v11.54ZM305.81,118.76c-.93,0-1.35.02-1.84.1v-1.56c.53.09.95.11,1.92.11h2.54c0-.61-.02-.89-.11-1.35h1.84c-.09.46-.11.74-.11,1.35h3.15c.97,0,1.39-.02,1.92-.11v1.56c-.51-.08-1.02-.1-1.9-.1h-3.17v.95h2.79c.82,0,1.14-.02,1.63-.08v1.44c-.47-.06-.91-.08-1.67-.08h-2.75v1.03h3.51c.89,0,1.4-.02,1.9-.11v1.61c-.61-.08-1.14-.11-1.9-.11h-8.07c-.91,0-1.4.02-1.92.11v-1.61c.47.09.93.11,1.92.11h2.94v-1.03h-2.2c-.76,0-1.12.02-1.67.08v-1.44c.53.06.89.08,1.67.08h2.2v-.95h-2.62ZM306.23,131.33c0,.97.04,1.59.11,2.13h-1.86c.08-.55.1-1.04.1-2.13v-5.39c0-.8-.02-1.12-.06-1.63.46.04.91.06,1.61.06h6.34c.87,0,1.33-.02,1.73-.08-.06.47-.08,1.02-.08,1.99v5.33c0,1.35-.46,1.69-2.18,1.69-.4,0-.97-.02-1.78-.08-.11-.7-.17-1.01-.4-1.58.83.13,1.46.19,1.94.19.65,0,.76-.08.76-.47v-.93h-6.23v.89ZM312.45,126.77v-1.08h-6.23v1.08h6.23ZM312.45,129.11v-1.03h-6.23v1.03h6.23Z"/>
      <path d="M328.04,121.23c.78,0,1.1-.02,1.59-.09v1.69c-.38-.06-.59-.06-1.08-.08-.34,1.25-.51,1.77-.8,2.43h.28c.85,0,1.16-.02,1.59-.09v1.69c-.47-.06-.87-.08-1.59-.08h-1.67v1.77h1.48c.7,0,1.04-.02,1.5-.08v1.67c-.49-.06-.83-.08-1.5-.08h-1.48v1.61c0,.67.04,1.23.09,1.88h-1.78c.08-.68.11-1.16.11-1.88v-1.61h-1.59c-.7,0-.99.02-1.52.08v-1.67c.46.06.82.08,1.52.08h1.59v-1.77h-1.92c-.68,0-1.08.02-1.59.08v-1.69c.46.08.78.09,1.59.09h.44c-.17-.97-.3-1.46-.63-2.43-.68,0-.97.02-1.4.08v-1.69c.47.08.85.09,1.59.09h1.92v-1.69h-1.48c-.65,0-1.02.02-1.5.08v-1.67c.46.06.78.08,1.5.08h1.48v-.44c0-.55-.04-1.18-.09-1.52h1.77c-.08.51-.09.91-.09,1.52v.44h1.27c.74,0,1.06-.02,1.52-.08v1.67c-.47-.06-.84-.08-1.52-.08h-1.27v1.69h1.67ZM326.24,125.18c.34-.78.57-1.48.78-2.43h-2.85c.29.89.46,1.54.63,2.43h1.44ZM337.95,123.62c-.1.25-.13.36-.23.84-.42,1.8-1.04,3.55-1.75,4.82.89,1.04,1.52,1.58,2.85,2.43-.44.61-.68,1.01-.95,1.63-1.16-.87-1.96-1.63-2.77-2.6-.68.97-1.37,1.71-2.35,2.58-.34-.59-.57-.89-1.06-1.46.02.61.04.99.13,1.61h-1.84c.11-.76.13-1.21.13-2.11v-12.76c0-.65-.04-1.33-.09-1.86.49.08,1.06.09,1.78.09h4.56c.8,0,1.35-.02,1.69-.08-.06.47-.06.53-.11,1.08-.25,3.42-.49,3.81-2.43,3.81-.4,0-.93-.04-1.78-.11-.06-.61-.13-.95-.34-1.52.83.15,1.61.23,2.05.23.68,0,.74-.15.85-1.94h-4.59v4.46h3.7c.85,0,1.33-.02,1.69-.08l.87.91ZM331.69,131.84c1.14-.89,1.71-1.5,2.41-2.49-.93-1.44-1.4-2.66-1.99-5.07h-.42v7.55ZM333.55,124.29c.38,1.56.74,2.47,1.42,3.61.55-1.12.85-2.03,1.2-3.61h-2.62Z"/>
    </g>
    <path class="cls-5" d="M144.84,77.49v20.79h-2.52v-20.79h2.52Z"/>
    <path class="cls-5" d="M153.9,77.49v18.42h8.17v2.38h-10.69v-20.79h2.52Z"/>
    <path class="cls-5" d="M167.92,77.49h10.49v2.38h-10.49v-2.38ZM169.05,77.49v20.79h-2.52v-20.79h2.52ZM167.92,85.8h9.89v2.38h-9.89v-2.38ZM167.92,95.9h10.49v2.38h-10.49v-2.38Z"/>
    <path class="cls-5" d="M198.01,77.49l-6.15,9.89,6.59,10.9h-2.97l-4.9-8.7-5.05,8.7h-2.97l6.77-10.9-6.03-9.89h2.97l4.34,7.69,4.43-7.69h2.97Z"/>
    <path d="M216.13,77.49v18.42h8.17v2.38h-10.69v-20.79h2.52Z"/>
    <path d="M231.28,77.49v20.79h-2.52v-20.79h2.52Z"/>
    <path d="M247.47,87.74h9.65c0,1.45-.22,2.82-.65,4.11-.44,1.3-1.08,2.45-1.93,3.46-.85,1.01-1.9,1.81-3.13,2.39-1.24.58-2.65.88-4.23.88s-2.9-.26-4.19-.79c-1.29-.52-2.41-1.27-3.36-2.23-.95-.96-1.69-2.09-2.21-3.4s-.79-2.73-.79-4.28.26-2.97.79-4.28,1.26-2.44,2.21-3.4c.95-.96,2.07-1.7,3.36-2.23,1.29-.52,2.68-.79,4.19-.79,1.29,0,2.47.17,3.55.51,1.08.34,2.05.83,2.91,1.48.86.65,1.59,1.47,2.18,2.44l-1.78,1.63c-.65-1.11-1.56-1.98-2.73-2.6-1.17-.62-2.55-.94-4.13-.94-1.47,0-2.79.35-3.98,1.04s-2.13,1.65-2.84,2.87c-.7,1.22-1.05,2.64-1.05,4.26s.35,3.02,1.05,4.25c.7,1.23,1.65,2.19,2.84,2.88s2.51,1.04,3.98,1.04c1.03,0,1.95-.15,2.78-.46.82-.31,1.53-.74,2.12-1.29.59-.55,1.08-1.19,1.47-1.9.39-.71.67-1.47.85-2.29h-6.92v-2.38Z"/>
    <path d="M279.1,77.49v20.79h-2.52v-20.79h2.52ZM265.14,77.49v20.79h-2.52v-20.79h2.52ZM264.01,85.8h14.26v2.38h-14.26v-2.38Z"/>
    <path d="M283.55,77.49h13.22v2.38h-5.35v18.42h-2.52v-18.42h-5.35v-2.38Z"/>
    <path class="cls-5" d="M319.94,83.43v14.55h-2.52v-14.55h2.52ZM311.47,89.52h14.41v2.38h-14.41v-2.38Z"/>
    <path class="cls-5" d="M340.02,87.79c.45-.49.85-.99,1.17-1.47.33-.49.58-.98.74-1.49.17-.51.25-1.03.25-1.59,0-.46-.09-.9-.27-1.34-.18-.44-.44-.83-.79-1.19-.35-.36-.77-.64-1.26-.86s-1.06-.33-1.69-.33c-.89,0-1.66.2-2.3.61s-1.13.99-1.47,1.75c-.34.76-.5,1.67-.5,2.72h-2.52c0-1.48.27-2.79.8-3.91.53-1.12,1.31-1.99,2.33-2.61,1.02-.62,2.24-.94,3.67-.94,1.15,0,2.14.19,2.97.58.83.39,1.51.88,2.05,1.49s.93,1.25,1.19,1.95.39,1.36.39,1.99c0,1.07-.26,2.13-.77,3.18-.52,1.05-1.18,1.99-1.99,2.82l-6.62,6.74h9.48v2.38h-14.67l9.83-10.48Z"/>
    <path class="cls-5" d="M360.4,77.49h1.04v20.79h-2.52v-15.18l-5.88,8.79h11.67v2.23h-15.83l11.52-16.63Z"/>
  </g>
</svg>